# xmcd
#
# Track frame offsets:
#	150
#	15940
#	30497
#	44607
#	52200
#	68202
#	83775
#	94960
#	102890
#	113952
#	122667
#	135872
#	142890
#	153075
#	173565
#	181162
#	188645
#	198730
#	210060
#	227075
#	236462
#	245605
#	261822
#	273802
#	282300
#
# Disc length: 3880 seconds
#
# Revision: 0
# Processed by: cddbd v1.5.1PL0 Copyright (c) Steve Scherf et al.
# Submitted via: dBpowerAMP V4.0
#
DISCID=4b0f2619
DTITLE=Juliana Andrade - A Viola da Princesa
DYEAR=1900
DGENRE=Sertanejo
TTITLE0=Lembrança ( José Fortuna)
TTITLE1=Pagode 200 (Juliana Andrade)
TTITLE2=Saudades - a- saudade me fez voltar, b- oi paixão, c-amor e saudade
TTITLE3=Natureza(Dino Franco)
TTITLE4=Velho pouso de boiada (Nono Basílio e Índio Vago
TTITLE5=Sonho de Criança (gedeão da viola)
TTITLE6=Direito de Cantar (Zé Mulato e Cassiano)
TTITLE7=Vai com Deus - D.R Vr. José Fortuna
TTITLE8=Saudade de Ouro Preto - Alvarenga 
TTITLE9=Solidão sertaneja - Gedeão da viola
TTITLE10=Tributo a João Pacífico e Raul Torres - a- cabocla tereza, b- esqueça tua maria, c-pingo d´água,d-mourao da porteira
TTITLE11=Festa no sertao  Juliana Andrade
TTITLE12=A vida da princesa - Juliana Andrade
TTITLE13=Raiz brasileira - Juliana Andrade
TTITLE14=Bouquet de Flor - Carreirinho e Zé Carreiro
TTITLE15=Capricho de mulher - Juliana Andrade
TTITLE16=Seleçao de pagodes - viola minha viola
TTITLE17=Velha porteira - Elio Alves e Ziltinho
TTITLE18=Enquanto a estrela brilhar a-enquanto a estrela brilhar,b-rancho vazio,c-boi de carro,d-tristeza do jeca
TTITLE19=Seleçao de pagodes - a coisa tá feia
TTITLE20=Saudades de matao - Antenógenes Silva e Raul Torres e \jorge Gallati
TTITLE21=Meu pai - Tiao do Carro e Caetano Erba
TTITLE22=Chalana - Mário Zan e Arlindo Pinto
TTITLE23=Chico Mulato - JOao Pacífico e Raul Torres
TTITLE24=Rincao mineiro - Moreno
EXTD=Troféu a princesa da viola.
EXTT0=
EXTT1=
EXTT2=
EXTT3=
EXTT4=
EXTT5=
EXTT6=
EXTT7=
EXTT8=
EXTT9=
EXTT10=
EXTT11=
EXTT12=
EXTT13=
EXTT14=
EXTT15=
EXTT16=
EXTT17=
EXTT18=
EXTT19=
EXTT20=
EXTT21=
EXTT22=
EXTT23=
EXTT24=
PLAYORDER=
